<svg width="958" height="957" viewBox="0 0 958 957" fill="none" xmlns="http://www.w3.org/2000/svg">
<defs>
<radialGradient id="paint0_radial_130_19" cx="0" cy="0" r="1" gradientUnits="userSpaceOnUse" gradientTransform="translate(478.696 478.363) scale(478.626 478.423)">
<stop stop-color="white" stop-opacity="0.1"/>
<stop offset="1" stop-color="white" stop-opacity="0"/>
</radialGradient>
</defs>
<path d="M14.8474 479.386L161.721 173.535L192.366 755.21L33.2953 596.207C33.2913 596.203 33.2872 596.199 33.2832 596.195C14.3044 576.668 2.5 549.172 2.5 522.389C2.5 516.408 4.20392 508.541 6.6517 500.617C9.08438 492.742 12.1861 485.018 14.8443 479.393C14.8453 479.39 14.8464 479.388 14.8474 479.386Z" fill="#01579B" stroke="white" stroke-width="5"/>
<path d="M590.173 33.2533L590.177 33.2577L749.266 192.28L173.354 161.639L467.121 14.818L467.204 14.7764L467.284 14.7286C480.533 6.82345 501.265 2.5 522.68 2.5C534.749 2.5 548.107 6.62714 560.298 12.6118C572.475 18.5899 583.26 26.3097 590.173 33.2533Z" fill="#40C4FF" stroke="white" stroke-width="5"/>
<path d="M784.65 788.573V954.206H391.446L225.034 787.796L491.213 694.984L784.65 788.573Z" fill="#40C4FF" stroke="white" stroke-width="5"/>
<path d="M197.045 759.888L197.043 759.885C184.505 747.318 176.955 738.213 172.424 726.165C167.865 714.045 166.273 698.71 166.273 673.511V169.278L508.317 473.898L781.618 784.317H221.485L197.045 759.888Z" fill="#29B6F6" stroke="white" stroke-width="5"/>
<path d="M753.875 196.887L753.88 196.891L954.611 397.537V784.247H788.115L169.74 166.133H667.467C684.798 166.133 699.461 166.913 713.254 171.12C726.981 175.308 739.994 182.942 753.875 196.887Z" fill="#01579B" stroke="white" stroke-width="5"/>
<path opacity="0.2" d="M166.202 169.667L167.531 170.995V673.511C167.531 695.705 169.114 713.281 173.959 728.556C174.237 729.432 174.526 730.3 174.825 731.161C173.204 728.147 171.898 725.195 170.84 722.212C166.284 709.362 166.238 695.71 166.202 673.439V169.667Z" fill="white" stroke="white" stroke-width="5"/>
<path opacity="0.2" d="M950.852 782.991H953.352V780.491V396.279L954.681 397.607V784.247H788.177L786.907 782.991H950.852Z" fill="#263238" stroke="white" stroke-width="5"/>
<path opacity="0.2" d="M710.188 170.092C711.044 170.318 711.897 170.558 712.749 170.812C710.244 170.281 707.751 169.83 705.286 169.448C690.251 167.116 676.027 167.294 666.383 167.414C664.497 167.438 662.786 167.459 661.279 167.459H171.137L169.81 166.133H661.209C680.084 166.133 695.553 166.218 710.188 170.092Z" fill="white" stroke="white" stroke-width="5"/>
<path opacity="0.2" d="M949.085 392.014L949.099 392.028L949.114 392.042L954.892 397.631V784.317H787.361H784.861V786.817V954.276H781.032H391.657L386.06 948.682L222.358 785.049L203.442 766.141L197.113 759.815L197.107 759.809L197.101 759.803C192.075 754.848 187.927 750.422 184.42 746.093L184.335 745.987L184.238 745.891L33.3657 596.207C33.3603 596.202 33.3549 596.196 33.3496 596.191C14.3731 576.664 2.57031 549.17 2.57031 522.389C2.57031 516.408 4.27423 508.541 6.72202 500.617C9.15469 492.742 12.2564 485.018 14.9146 479.393C14.9156 479.39 14.9167 479.388 14.9177 479.386L165.656 165.487L467.121 14.818L467.204 14.7764L467.284 14.7286C480.533 6.82345 501.265 2.5 522.68 2.5C534.749 2.5 548.107 6.62714 560.298 12.6118C572.475 18.5899 583.26 26.3097 590.173 33.2533L590.177 33.2577L753.88 196.891L949.085 392.014Z" fill="url(#paint0_radial_130_19)" stroke="white" stroke-width="5"/>
</svg>
