<svg width="375" height="264" viewBox="0 0 375 264" fill="none" xmlns="http://www.w3.org/2000/svg">
<mask id="mask0_106_2" style="mask-type:alpha" maskUnits="userSpaceOnUse" x="0" y="0" width="375" height="264">
<rect width="375" height="264" fill="#D9D9D9"/>
</mask>
<g mask="url(#mask0_106_2)">
<path d="M23.6423 137.773L72.553 35.8773L82.7655 229.802L29.8027 176.84C29.8002 176.837 29.7978 176.834 29.7953 176.832C23.4443 170.293 19.5 161.087 19.5 152.145C19.5 150.206 20.0571 147.6 20.8848 144.919C21.7035 142.268 22.748 139.666 23.6403 137.777C23.641 137.775 23.6416 137.774 23.6423 137.773Z" fill="#01579B" stroke="white" stroke-width="3"/>
<path d="M218.499 -14.0232L218.502 -14.0206L271.477 38.955L79.5127 28.7376L177.349 -20.1806L177.399 -20.2056L177.447 -20.2342C181.82 -22.8444 188.748 -24.3082 195.977 -24.3082C199.952 -24.3082 204.4 -22.944 208.5 -20.9301C212.593 -18.9201 216.204 -16.3299 218.499 -14.0232Z" fill="#40C4FF" stroke="white" stroke-width="3"/>
<path d="M284.531 243.295V298.596H151.56L95.815 242.828L185.271 211.623L284.531 243.295Z" fill="#40C4FF" stroke="white" stroke-width="3"/>
<path d="M85.5549 232.592C81.2979 228.323 78.8112 225.302 77.3192 221.334C75.8111 217.323 75.2661 212.2 75.2661 203.625V33.3033L190.625 136.084L282.713 240.723H93.6864L85.5552 232.592C85.5551 232.592 85.555 232.592 85.5549 232.592Z" fill="#29B6F6" stroke="white" stroke-width="3"/>
<path d="M274.241 41.7189L274.244 41.7215L342.404 109.882V240.699H286.629L77.3634 31.4338H245.278C251.17 31.4338 256.081 31.7009 260.679 33.1045C265.239 34.4961 269.58 37.0345 274.241 41.7189Z" fill="#01579B" stroke="white" stroke-width="3"/>
<g opacity="0.2">
<mask id="path-7-inside-1_106_2" fill="white">
<path d="M86.624 235.782C78.052 227.162 75.897 218.686 75.897 203.625V32.0888L73.7421 29.9338V203.601C73.766 218.686 73.766 222.852 86.624 235.782L93.065 242.223L86.624 235.782Z"/>
</mask>
<path d="M86.624 235.782C78.052 227.162 75.897 218.686 75.897 203.625V32.0888L73.7421 29.9338V203.601C73.766 218.686 73.766 222.852 86.624 235.782L93.065 242.223L86.624 235.782Z" fill="white"/>
<path d="M86.624 235.782L84.4968 237.897L84.5027 237.903L86.624 235.782ZM75.897 32.0888H78.897V30.8462L78.0184 29.9675L75.897 32.0888ZM73.7421 29.9338L75.8634 27.8125L70.7421 22.6912V29.9338H73.7421ZM73.7421 203.601H70.7421L70.7421 203.606L73.7421 203.601ZM88.7513 233.667C84.755 229.648 82.3526 225.776 80.9058 221.212C79.4344 216.571 78.897 211.05 78.897 203.625H72.897C72.897 211.261 73.4372 217.508 75.1863 223.025C76.9599 228.62 79.9211 233.296 84.4968 237.897L88.7513 233.667ZM78.897 203.625V32.0888H72.897V203.625H78.897ZM78.0184 29.9675L75.8634 27.8125L71.6207 32.0552L73.7757 34.2101L78.0184 29.9675ZM70.7421 29.9338V203.601H76.7421V29.9338H70.7421ZM70.7421 203.606C70.7538 210.99 70.7254 216.374 72.5426 221.502C74.3869 226.706 78.009 231.373 84.4968 237.897L88.7513 233.667C82.3811 227.261 79.5741 223.38 78.1979 219.497C76.7947 215.538 76.7543 211.297 76.7421 203.596L70.7421 203.606ZM84.5027 237.903L90.9437 244.344L95.1863 240.102L88.7454 233.661L84.5027 237.903ZM95.1863 240.102L88.7454 233.661L84.5027 237.903L90.9437 244.344L95.1863 240.102Z" fill="white" mask="url(#path-7-inside-1_106_2)"/>
</g>
<g opacity="0.2">
<mask id="path-9-inside-2_106_2" fill="white">
<path d="M341.773 107.13V240.068H283.876L286.031 242.199H343.928V109.285L341.773 107.13Z"/>
</mask>
<path d="M341.773 107.13V240.068H283.876L286.031 242.199H343.928V109.285L341.773 107.13Z" fill="#263238"/>
<path d="M341.773 107.13L343.895 105.009L338.773 99.8872V107.13H341.773ZM341.773 240.068V243.068H344.773V240.068H341.773ZM283.876 240.068V237.068H276.576L281.767 242.201L283.876 240.068ZM286.031 242.199L283.922 244.332L284.798 245.199H286.031V242.199ZM343.928 242.199V245.199H346.928V242.199H343.928ZM343.928 109.285H346.928V108.042L346.05 107.164L343.928 109.285ZM338.773 107.13V240.068H344.773V107.13H338.773ZM341.773 237.068H283.876V243.068H341.773V237.068ZM281.767 242.201L283.922 244.332L288.141 240.066L285.986 237.935L281.767 242.201ZM286.031 245.199H343.928V239.199H286.031V245.199ZM346.928 242.199V109.285H340.928V242.199H346.928ZM346.05 107.164L343.895 105.009L339.652 109.251L341.807 111.406L346.05 107.164Z" fill="white" mask="url(#path-9-inside-2_106_2)"/>
</g>
<g opacity="0.2">
<mask id="path-11-inside-3_106_2" fill="white">
<path d="M275.304 40.6608C264.673 30.0296 255.957 29.9338 243.147 29.9338H73.7661L75.9211 32.0888H243.171C249.54 32.0888 265.703 31.0113 275.304 40.6608Z"/>
</mask>
<path d="M275.304 40.6608C264.673 30.0296 255.957 29.9338 243.147 29.9338H73.7661L75.9211 32.0888H243.171C249.54 32.0888 265.703 31.0113 275.304 40.6608Z" fill="white"/>
<path d="M275.304 40.6608L273.183 42.7821L277.431 38.5448L275.304 40.6608ZM73.7661 29.9338V26.9338H66.5235L71.6448 32.0552L73.7661 29.9338ZM75.9211 32.0888L73.7998 34.2101L74.6784 35.0888H75.9211V32.0888ZM277.426 38.5395C271.788 32.9017 266.499 29.9167 260.811 28.4106C255.258 26.9402 249.474 26.9338 243.147 26.9338V32.9338C249.63 32.9338 254.61 32.9753 259.275 34.2107C263.805 35.4102 268.189 37.7887 273.183 42.7821L277.426 38.5395ZM243.147 26.9338H73.7661V32.9338H243.147V26.9338ZM71.6448 32.0552L73.7998 34.2101L78.0424 29.9675L75.8874 27.8125L71.6448 32.0552ZM75.9211 35.0888H243.171V29.0888H75.9211V35.0888ZM243.171 35.0888C246.519 35.0888 251.824 34.8298 257.566 35.7208C263.294 36.6097 269.014 38.5923 273.178 42.7769L277.431 38.5448C271.993 33.0799 264.831 30.7764 258.486 29.7917C252.154 28.8091 246.193 29.0888 243.171 29.0888V35.0888Z" fill="white" mask="url(#path-11-inside-3_106_2)"/>
</g>
<path opacity="0.2" d="M340.712 108.191L340.721 108.199L340.73 108.208L342.5 109.921V240.723H286.103H284.603V242.223V298.62H283.948H151.631L149.915 296.904L94.1734 241.162L87.7324 234.721L85.5775 232.566L85.57 232.559C83.8681 230.881 82.474 229.391 81.3009 227.942L81.2496 227.879L81.1917 227.821L29.817 176.83C23.4672 170.291 19.5238 161.086 19.5238 152.145C19.5238 150.206 20.0809 147.6 20.9086 144.919C21.7273 142.268 22.7718 139.666 23.6642 137.777C23.6648 137.775 23.6655 137.774 23.6661 137.773L74.8959 31.0458L177.349 -20.1806L177.399 -20.2056L177.447 -20.2342C181.819 -22.8444 188.748 -24.3082 195.977 -24.3082C199.952 -24.3082 204.399 -22.944 208.5 -20.9301C212.593 -18.9201 216.203 -16.3299 218.499 -14.0232L218.501 -14.0206L274.243 41.7215L340.712 108.191Z" fill="url(#paint0_radial_106_2)" stroke="white" stroke-width="3"/>
</g>
<defs>
<radialGradient id="paint0_radial_106_2" cx="0" cy="0" r="1" gradientUnits="userSpaceOnUse" gradientTransform="translate(181 137.147) scale(162.976 162.976)">
<stop stop-color="white" stop-opacity="0.1"/>
<stop offset="1" stop-color="white" stop-opacity="0"/>
</radialGradient>
</defs>
</svg>
