<svg width="152" height="340" viewBox="0 0 152 340" fill="none" xmlns="http://www.w3.org/2000/svg">
<path d="M9.8441 299.545L-40.1977 248.091L9.8288 196.729L60.2338 248.226L9.8441 299.545Z" fill="#1FBCFD" stroke="white" stroke-width="3"/>
<path d="M47.2017 158.195L47.2748 158.122L47.3372 158.04C47.6103 157.68 48.0072 157.502 48.8695 157.476C49.2349 157.464 49.606 157.481 50.0396 157.501C50.1342 157.505 50.2317 157.51 50.3327 157.514C50.8295 157.536 51.4142 157.553 51.9925 157.492L148.282 157.517L60.7667 244.775L10.4489 194.863L47.2017 158.195ZM-119.877 169.195L47.7393 1.9056L148.368 1.79492L-25.0197 174.756L-25.0224 174.758L-69.8187 219.217L-119.877 169.195Z" fill="#44D1FD" stroke="white" stroke-width="3"/>
<path d="M9.64786 299.63L60.4896 249.013L148.401 337.442C132.368 337.473 116.338 337.467 100.307 337.46C83.0783 337.454 65.8489 337.447 48.6192 337.486L48.4544 337.487L48.2936 337.523C47.9024 337.611 47.5557 337.522 47.0472 337.136C46.7796 336.933 46.5085 336.677 46.1945 336.364C46.1351 336.305 46.0726 336.242 46.0079 336.177C45.7674 335.936 45.4948 335.662 45.2246 335.419L9.64786 299.63Z" fill="#08589C" stroke="white" stroke-width="3"/>
</svg>
