<svg width="126" height="50" viewBox="0 0 126 50" fill="none" xmlns="http://www.w3.org/2000/svg">
<path d="M44.5353 15.1969V3.40845H39.8644V0H53.4861V3.40845H48.8369V15.1969H44.5353Z" fill="white"/>
<path d="M65.2561 0H69.5577V15.1969H65.2561V0ZM59.3903 15.1969H55.0887V0H59.3903V15.1969ZM65.5602 9.27013H59.0861V5.7097H65.5602V9.27013Z" fill="white"/>
<path d="M76.5459 5.88338H83.6066V9.09645H76.5459V5.88338ZM76.85 11.8753H84.8015V15.1969H72.5919V0H84.5191V3.32161H76.85V11.8753Z" fill="white"/>
<path d="M41.2982 32.1578V16.9609H44.8395L51.1398 27.2948H49.2714L55.3979 16.9609H58.9391L58.9826 32.1578H55.0286L54.9851 22.9745H55.6586L51.0746 30.6598H49.1628L44.4484 22.9745H45.274V32.1578H41.2982Z" fill="white"/>
<path d="M69.6953 32.4617C68.4787 32.4617 67.3562 32.2663 66.3279 31.8756C65.2996 31.4848 64.4016 30.9348 63.634 30.2256C62.8808 29.5019 62.2943 28.6625 61.8742 27.7073C61.4542 26.752 61.2442 25.7027 61.2442 24.5593C61.2442 23.4159 61.4542 22.3666 61.8742 21.4114C62.2943 20.4562 62.8808 19.6239 63.634 18.9147C64.4016 18.1911 65.2996 17.6339 66.3279 17.2431C67.3562 16.8523 68.4787 16.6569 69.6953 16.6569C70.9264 16.6569 72.0489 16.8523 73.0627 17.2431C74.0911 17.6339 74.9818 18.1911 75.7349 18.9147C76.4881 19.6239 77.0747 20.4562 77.4947 21.4114C77.9292 22.3666 78.1464 23.4159 78.1464 24.5593C78.1464 25.7027 77.9292 26.7593 77.4947 27.729C77.0747 28.6842 76.4881 29.5164 75.7349 30.2256C74.9818 30.9348 74.0911 31.4848 73.0627 31.8756C72.0489 32.2663 70.9264 32.4617 69.6953 32.4617ZM69.6953 28.9013C70.2747 28.9013 70.8105 28.8 71.303 28.5974C71.8099 28.3947 72.2444 28.1053 72.6065 27.729C72.9831 27.3382 73.2727 26.875 73.4755 26.3395C73.6928 25.804 73.8014 25.2106 73.8014 24.5593C73.8014 23.8936 73.6928 23.3001 73.4755 22.7791C73.2727 22.2436 72.9831 21.7877 72.6065 21.4114C72.2444 21.0206 71.8099 20.7239 71.303 20.5213C70.8105 20.3187 70.2747 20.2173 69.6953 20.2173C69.116 20.2173 68.5729 20.3187 68.0659 20.5213C67.5735 20.7239 67.139 21.0206 66.7624 21.4114C66.4003 21.7877 66.1107 22.2436 65.8934 22.7791C65.6906 23.3001 65.5893 23.8936 65.5893 24.5593C65.5893 25.2106 65.6906 25.804 65.8934 26.3395C66.1107 26.875 66.4003 27.3382 66.7624 27.729C67.139 28.1053 67.5735 28.3947 68.0659 28.5974C68.5729 28.8 69.116 28.9013 69.6953 28.9013Z" fill="white"/>
<path d="M80.3994 32.1578V16.9609H83.9406L92.3266 27.0777H90.6537V16.9609H94.8684V32.1578H91.3272L82.9413 22.041H84.6141V32.1578H80.3994Z" fill="white"/>
<path d="M101.748 28.7928L101.509 23.9732L108.048 16.9609H112.784L106.267 24.0166L103.877 26.5132L101.748 28.7928ZM97.9026 32.1578V16.9609H102.161V32.1578H97.9026ZM108.113 32.1578L103.16 25.8836L105.963 22.8877L113.11 32.1578H108.113Z" fill="white"/>
<path d="M119.265 32.4617C118.02 32.4617 116.817 32.3098 115.659 32.0058C114.515 31.6874 113.58 31.2822 112.856 30.7901L114.268 27.6204C114.949 28.0546 115.731 28.4164 116.615 28.7059C117.513 28.9809 118.403 29.1184 119.287 29.1184C119.881 29.1184 120.359 29.0677 120.721 28.9664C121.083 28.8506 121.344 28.7059 121.503 28.5322C121.677 28.3441 121.764 28.127 121.764 27.8809C121.764 27.5336 121.604 27.2586 121.286 27.056C120.967 26.8533 120.554 26.6869 120.047 26.5566C119.54 26.4264 118.975 26.2961 118.353 26.1659C117.744 26.0356 117.129 25.8692 116.506 25.6665C115.898 25.4639 115.34 25.2034 114.833 24.885C114.326 24.5521 113.914 24.1251 113.595 23.6041C113.276 23.0686 113.117 22.3956 113.117 21.5851C113.117 20.6733 113.363 19.8483 113.856 19.1101C114.362 18.372 115.116 17.7786 116.115 17.3299C117.114 16.8813 118.36 16.6569 119.852 16.6569C120.851 16.6569 121.829 16.7727 122.785 17.0043C123.755 17.2214 124.617 17.547 125.37 17.9812L124.045 21.1726C123.321 20.7818 122.604 20.4923 121.894 20.3042C121.184 20.1016 120.496 20.0002 119.83 20.0002C119.236 20.0002 118.758 20.0654 118.396 20.1956C118.034 20.3114 117.773 20.4706 117.614 20.6733C117.455 20.8759 117.375 21.1074 117.375 21.368C117.375 21.7009 117.527 21.9686 117.831 22.1712C118.15 22.3594 118.563 22.5186 119.07 22.6489C119.591 22.7646 120.156 22.8877 120.764 23.0179C121.387 23.1482 122.003 23.3146 122.611 23.5172C123.234 23.7054 123.798 23.9659 124.305 24.2988C124.812 24.6172 125.218 25.0442 125.522 25.5797C125.841 26.1007 126 26.7593 126 27.5553C126 28.4382 125.747 29.2559 125.24 30.0085C124.747 30.7466 124.001 31.34 123.002 31.7887C122.017 32.2374 120.771 32.4617 119.265 32.4617Z" fill="white"/>
<path d="M41.2982 49.1186V33.9217H45.5998V45.7102H52.8561V49.1186H41.2982Z" fill="white"/>
<path d="M52.8819 49.1186L59.595 33.9217H63.8314L70.5662 49.1186H66.0908L60.8333 36.0276H62.5279L57.2704 49.1186H52.8819ZM56.5534 46.1661L57.6614 42.9965H65.0914L66.1994 46.1661H56.5534Z" fill="white"/>
<path d="M71.7857 49.1186V33.9217H79.5633C81.562 33.9217 83.0538 34.2908 84.0387 35.0289C85.0236 35.7526 85.516 36.7078 85.516 37.8946C85.516 38.6762 85.306 39.3637 84.886 39.9571C84.4805 40.536 83.9011 40.9991 83.148 41.3465C82.4093 41.6794 81.5258 41.8458 80.4975 41.8458L80.932 40.8038C82.0038 40.8038 82.938 40.9702 83.7346 41.3031C84.5312 41.6215 85.1467 42.0919 85.5812 42.7142C86.0302 43.3221 86.2547 44.0675 86.2547 44.9503C86.2547 46.2674 85.7188 47.295 84.647 48.0331C83.5897 48.7568 82.04 49.1186 79.9978 49.1186H71.7857ZM76.0438 46.0141H79.6502C80.3889 46.0141 80.9465 45.8911 81.3231 45.6451C81.7141 45.3845 81.9096 44.9938 81.9096 44.4727C81.9096 43.9517 81.7141 43.5681 81.3231 43.3221C80.9465 43.0616 80.3889 42.9313 79.6502 42.9313H75.7397V39.9571H78.9985C79.7226 39.9571 80.2658 39.834 80.6279 39.588C80.9899 39.342 81.171 38.9729 81.171 38.4808C81.171 37.9887 80.9899 37.6269 80.6279 37.3953C80.2658 37.1493 79.7226 37.0262 78.9985 37.0262H76.0438V46.0141Z" fill="white"/>
<path d="M14.456 40.8641C17.7597 40.8641 20.4376 41.2801 20.4376 41.7932C20.4376 42.3066 17.7597 42.7223 14.456 42.7223C11.1523 42.7223 8.47412 42.3066 8.47412 41.7932C8.47412 41.2801 11.1523 40.8641 14.456 40.8641Z" fill="#A1AFB2"/>
<path d="M20.3924 36.4535C20.3924 40.7566 17.7339 41.4747 14.4552 41.4747C11.1779 41.4747 8.51837 40.7566 8.51837 36.4535C8.51837 32.1501 11.1779 28.6613 14.4552 28.6613C17.7339 28.6613 20.3924 32.1496 20.3924 36.4535Z" fill="#232728"/>
<path d="M28.9106 21.3295C28.9106 26.6895 22.4372 29.3835 14.4553 29.3835C6.47322 29.3835 0 26.6895 0 21.3295C0 15.9697 6.47322 11.6249 14.4553 11.6249C22.4372 11.6249 28.9106 15.9697 28.9106 21.3295Z" fill="#F9C1AC"/>
<path d="M28.9106 21.3295C28.9106 26.6895 22.4372 29.3835 14.4553 29.3835C6.47322 29.3835 0 26.6895 0 21.3295" fill="#F2B09C"/>
<path d="M9.23929 19.6316C9.78108 19.6316 10.2204 20.0709 10.2204 20.6127C10.2204 21.1544 9.78108 21.5936 9.23929 21.5936C8.69749 21.5936 8.25842 21.1544 8.25842 20.6127C8.25842 20.0709 8.69749 19.6316 9.23929 19.6316Z" fill="#113E49"/>
<path d="M10.2204 20.611C10.2204 21.1536 9.78082 21.5919 9.23929 21.5919C8.69762 21.5919 8.25842 21.1536 8.25842 20.611" fill="black"/>
<path d="M11.1756 22.6563C11.1223 22.6563 11.069 22.6364 11.0281 22.5958C10.5499 22.1165 9.91334 21.8531 9.23808 21.8531H9.2368C8.56296 21.8531 7.92651 22.1165 7.45068 22.5949C7.37037 22.675 7.23934 22.6776 7.15954 22.5958C7.0777 22.5167 7.07642 22.3857 7.15698 22.3046C7.71184 21.7472 8.45114 21.4401 9.2368 21.4401H9.23808C10.0258 21.4401 10.7643 21.7461 11.3229 22.3033C11.4023 22.3837 11.4023 22.5172 11.3229 22.5958C11.2819 22.6364 11.2286 22.6563 11.1756 22.6563Z" fill="#FFD3C5"/>
<path d="M19.6718 19.6323C20.2132 19.6323 20.6522 20.0712 20.6522 20.6127C20.6522 21.1541 20.2132 21.5932 19.6718 21.5932C19.1302 21.5932 18.6915 21.1541 18.6915 20.6127C18.6915 20.0712 19.1302 19.6323 19.6718 19.6323Z" fill="#113E49"/>
<path d="M18.6913 20.611C18.6913 21.1536 19.1298 21.5919 19.6711 21.5919C20.2128 21.5919 20.6524 21.1536 20.6524 20.611" fill="black"/>
<path d="M17.7363 22.6563C17.7884 22.6563 17.8416 22.6364 17.8827 22.5958C18.362 22.1165 18.9972 21.8531 19.6723 21.8531H19.6749C20.3478 21.8531 20.9842 22.1165 21.461 22.5949C21.5416 22.675 21.6726 22.6776 21.7524 22.5958C21.834 22.5167 21.8353 22.3857 21.7537 22.3046C21.2001 21.7472 20.4597 21.4401 19.6749 21.4401H19.6723C18.8849 21.4401 18.1474 21.7461 17.5878 22.3033C17.5096 22.3837 17.5096 22.5172 17.5878 22.5958C17.6288 22.6364 17.682 22.6563 17.7363 22.6563Z" fill="#FFD3C5"/>
<path d="M14.4552 22.7567C14.7995 22.7567 15.0786 23.1257 15.0786 23.5807C15.0786 24.0357 14.7995 24.4044 14.4552 24.4044C14.1112 24.4044 13.8321 24.0357 13.8321 23.5807C13.8321 23.1257 14.1112 22.7567 14.4552 22.7567Z" fill="#A54A53"/>
<path d="M12.9793 39.5205C12.9417 38.9148 12.3724 37.6588 11.7654 37.695L8.46202 38.7019C7.85772 38.7386 7.39764 39.2606 7.43491 39.8649C7.47321 40.4696 7.994 40.9289 8.59791 40.8908L12.7979 41.4305C13.4036 41.3924 13.0168 40.1273 12.9793 39.5205Z" fill="#232728"/>
<path d="M15.9319 39.5205C15.9695 38.9148 16.5383 37.6588 17.1445 37.695L20.4487 38.7019C21.053 38.7386 21.5118 39.2606 21.4755 39.8649C21.4368 40.4696 20.9152 40.9289 20.3125 40.8908L16.1115 41.4305C15.5072 41.3924 15.8939 40.1273 15.9319 39.5205Z" fill="#232728"/>
<path d="M10.5239 32.0921C11.1863 32.253 11.5913 32.9162 11.4342 33.5798L10.5474 37.2465C10.389 37.9076 9.72412 38.3139 9.06039 38.153C8.4023 37.9934 7.99602 37.3293 8.15433 36.6691L9.03862 33C9.19821 32.3412 9.86117 31.9338 10.5239 32.0921Z" fill="#F2B09C"/>
<path d="M8.6627 38.6584C8.10105 38.3502 5.1454 36.1403 5.45113 35.5768C5.7593 35.0161 9.2141 36.3204 9.77549 36.6261C10.337 36.9345 10.5432 37.6367 10.2338 38.1991C9.9265 38.7613 9.22358 38.9655 8.6627 38.6584Z" fill="#F9C1AC"/>
<path d="M18.3867 32.0921C17.7242 32.253 17.3192 32.9162 17.4764 33.5798L18.3629 37.2465C18.5213 37.9076 19.1862 38.3139 19.8499 38.153C20.508 37.9934 20.9143 37.3293 20.756 36.6691L19.8717 33C19.7124 32.3412 19.0491 31.9338 18.3867 32.0921Z" fill="#F2B09C"/>
<path d="M20.2473 38.6584C20.8094 38.3502 23.7654 36.1403 23.4581 35.5768C23.1512 35.0161 19.6954 36.3204 19.135 36.6261C18.5735 36.9345 18.3673 37.6367 18.6767 38.1991C18.984 38.7613 19.6869 38.9655 20.2473 38.6584Z" fill="#F9C1AC"/>
<path d="M14.2686 40.0681C14.7327 39.929 16.6122 38.9523 16.4725 38.4898C16.3322 38.0245 14.2256 38.2492 13.762 38.3883C13.299 38.5274 13.0348 39.0177 13.1739 39.4817C13.3148 39.9455 13.8048 40.2085 14.2686 40.0681Z" fill="#F9C1AC"/>
<path d="M14.642 40.0681C14.1777 39.929 12.2985 38.9523 12.4381 38.4898C12.5785 38.0245 14.6851 38.2492 15.1486 38.3883C15.6116 38.5274 15.8759 39.0177 15.7368 39.4817C15.5959 39.9455 15.1056 40.2085 14.642 40.0681Z" fill="#F9C1AC"/>
<path d="M16.3172 6.61473H12.6528V7.48032H13.2298V15.7324C13.2298 16.1938 13.6049 16.569 14.0667 16.569H14.9322C15.3938 16.569 15.7688 16.1938 15.7688 15.7324V7.45137H16.346V6.61473H16.3172Z" fill="#F2B09C"/>
<path d="M13.4896 9.55781V15.7034C13.4896 16.0208 13.7492 16.2517 14.0376 16.2517H14.9032C15.2207 16.2517 15.4515 15.992 15.4515 15.7034V9.55781H13.4896Z" fill="#F16D6E"/>
<path d="M14.788 7.36487C15.0271 7.36487 15.2208 7.55866 15.2208 7.79767C15.2208 8.03667 15.0271 8.23059 14.788 8.23059C14.5491 8.23059 14.3552 8.03667 14.3552 7.79767C14.3552 7.55866 14.5491 7.36487 14.788 7.36487Z" fill="white"/>
<path d="M14.5283 10.3656C14.7194 10.3656 14.8745 10.5207 14.8745 10.7118C14.8745 10.903 14.7194 11.058 14.5283 11.058C14.3372 11.058 14.1821 10.903 14.1821 10.7118C14.1821 10.5207 14.3372 10.3656 14.5283 10.3656Z" fill="white"/>
<path d="M14.5861 12.7027C14.7612 12.7027 14.9033 12.8448 14.9033 13.0201C14.9033 13.1954 14.7612 13.3375 14.5861 13.3375C14.4107 13.3375 14.2686 13.1954 14.2686 13.0201C14.2686 12.8448 14.4107 12.7027 14.5861 12.7027Z" fill="white"/>
<path d="M14.8167 14.1742C14.9442 14.1742 15.0476 14.2776 15.0476 14.4051C15.0476 14.5326 14.9442 14.6358 14.8167 14.6358C14.6894 14.6358 14.586 14.5326 14.586 14.4051C14.586 14.2776 14.6894 14.1742 14.8167 14.1742Z" fill="white"/>
</svg>
