<svg width="137" height="50" viewBox="0 0 137 50" fill="none" xmlns="http://www.w3.org/2000/svg">
<path d="M55.2307 15.1602V3.40022H50.5807V0H64.1414V3.40022H59.513V15.1602H55.2307Z" fill="white"/>
<path d="M75.8587 0H80.1411V15.1602H75.8587V0ZM70.0192 15.1602H65.7368V0H70.0192V15.1602ZM76.1615 9.24774H69.7164V5.69591H76.1615V9.24774Z" fill="white"/>
<path d="M87.098 5.86917H94.1271V9.07448H87.098V5.86917ZM87.4008 11.8466H95.3166V15.1602H83.1617V0H95.0355V3.31359H87.4008V11.8466Z" fill="white"/>
<path d="M52.0081 32.0801V16.9199H55.5335L61.8056 27.2288H59.9456L66.0447 16.9199H69.57L69.6133 32.0801H65.677L65.6338 22.919H66.3042L61.7407 30.5857H59.8375L55.1442 22.919H55.9661V32.0801H52.0081Z" fill="white"/>
<path d="M80.2781 32.3833C79.0669 32.3833 77.9495 32.1884 76.9258 31.7986C75.902 31.4087 75.0081 30.8601 74.2439 30.1526C73.4941 29.4307 72.9102 28.5933 72.492 27.6403C72.0739 26.6874 71.8648 25.6406 71.8648 24.5C71.8648 23.3594 72.0739 22.3126 72.492 21.3597C72.9102 20.4067 73.4941 19.5765 74.2439 18.8691C75.0081 18.1471 75.902 17.5913 76.9258 17.2014C77.9495 16.8116 79.0669 16.6167 80.2781 16.6167C81.5037 16.6167 82.6211 16.8116 83.6304 17.2014C84.6542 17.5913 85.5409 18.1471 86.2907 18.8691C87.0404 19.5765 87.6244 20.4067 88.0425 21.3597C88.4751 22.3126 88.6914 23.3594 88.6914 24.5C88.6914 25.6406 88.4751 26.6946 88.0425 27.662C87.6244 28.6149 87.0404 29.4451 86.2907 30.1526C85.5409 30.8601 84.6542 31.4087 83.6304 31.7986C82.6211 32.1884 81.5037 32.3833 80.2781 32.3833ZM80.2781 28.8315C80.8548 28.8315 81.3883 28.7304 81.8786 28.5283C82.3832 28.3262 82.8158 28.0374 83.1762 27.662C83.5511 27.2722 83.8395 26.8101 84.0414 26.2759C84.2576 25.7417 84.3658 25.1497 84.3658 24.5C84.3658 23.8358 84.2576 23.2439 84.0414 22.7241C83.8395 22.1899 83.5511 21.7351 83.1762 21.3597C82.8158 20.9698 82.3832 20.6739 81.8786 20.4717C81.3883 20.2696 80.8548 20.1685 80.2781 20.1685C79.7013 20.1685 79.1606 20.2696 78.656 20.4717C78.1658 20.6739 77.7332 20.9698 77.3583 21.3597C76.9978 21.7351 76.7095 22.1899 76.4932 22.7241C76.2913 23.2439 76.1904 23.8358 76.1904 24.5C76.1904 25.1497 76.2913 25.7417 76.4932 26.2759C76.7095 26.8101 76.9978 27.2722 77.3583 27.662C77.7332 28.0374 78.1658 28.3262 78.656 28.5283C79.1606 28.7304 79.7013 28.8315 80.2781 28.8315Z" fill="white"/>
<path d="M90.9343 32.0801V16.9199H94.4596L102.808 27.0123H101.143V16.9199H105.338V32.0801H101.813L93.4647 21.9877H95.1301V32.0801H90.9343Z" fill="white"/>
<path d="M112.187 28.7232L111.949 23.9153L118.459 16.9199H123.174L116.686 23.9586L114.307 26.4492L112.187 28.7232ZM108.359 32.0801V16.9199H112.598V32.0801H108.359ZM118.524 32.0801L113.593 25.8211L116.383 22.8324L123.499 32.0801H118.524Z" fill="white"/>
<path d="M129.626 32.3833C128.386 32.3833 127.189 32.2317 126.036 31.9285C124.897 31.6109 123.967 31.2066 123.246 30.7157L124.652 27.5537C125.329 27.9869 126.108 28.3478 126.987 28.6366C127.881 28.9109 128.768 29.0481 129.648 29.0481C130.239 29.0481 130.715 28.9975 131.075 28.8965C131.436 28.781 131.695 28.6366 131.854 28.4633C132.027 28.2756 132.113 28.059 132.113 27.8136C132.113 27.4671 131.955 27.1927 131.637 26.9906C131.32 26.7885 130.909 26.6224 130.405 26.4925C129.9 26.3625 129.338 26.2326 128.718 26.1027C128.112 25.9727 127.499 25.8067 126.879 25.6045C126.274 25.4024 125.719 25.1425 125.214 24.8249C124.709 24.4928 124.298 24.0669 123.981 23.5471C123.664 23.0129 123.505 22.3415 123.505 21.5329C123.505 20.6233 123.75 19.8003 124.241 19.064C124.745 18.3276 125.495 17.7357 126.49 17.2881C127.485 16.8405 128.725 16.6167 130.21 16.6167C131.205 16.6167 132.178 16.7322 133.13 16.9632C134.096 17.1798 134.954 17.5046 135.703 17.9378L134.384 21.1214C133.663 20.7316 132.95 20.4428 132.243 20.2551C131.536 20.053 130.852 19.9519 130.188 19.9519C129.597 19.9519 129.121 20.0169 128.761 20.1469C128.4 20.2624 128.141 20.4212 127.982 20.6233C127.824 20.8255 127.744 21.0565 127.744 21.3164C127.744 21.6484 127.896 21.9155 128.199 22.1177C128.516 22.3054 128.927 22.4642 129.431 22.5941C129.95 22.7097 130.513 22.8324 131.118 22.9623C131.738 23.0923 132.351 23.2583 132.957 23.4604C133.577 23.6481 134.139 23.908 134.644 24.2401C135.148 24.5578 135.552 24.9837 135.855 25.5179C136.172 26.0377 136.331 26.6946 136.331 27.4887C136.331 28.3695 136.078 29.1852 135.574 29.936C135.083 30.6724 134.341 31.2643 133.346 31.7119C132.366 32.1595 131.126 32.3833 129.626 32.3833Z" fill="white"/>
<path d="M52.0081 49V33.8398H56.2905V45.5998H63.5142V49H52.0081Z" fill="white"/>
<path d="M63.5399 49L70.2229 33.8398H74.4404L81.1451 49H76.6897L71.4557 35.9406H73.1427L67.9087 49H63.5399ZM67.195 46.0546L68.2981 42.8926H75.6948L76.7978 46.0546H67.195Z" fill="white"/>
<path d="M82.3591 49V33.8398H90.1019C92.0917 33.8398 93.5768 34.208 94.5573 34.9443C95.5378 35.6662 96.028 36.6192 96.028 37.8031C96.028 38.5828 95.8189 39.2686 95.4008 39.8606C94.9971 40.4381 94.4203 40.9001 93.6705 41.2466C92.9352 41.5787 92.0556 41.7448 91.0319 41.7448L91.4645 40.7052C92.5315 40.7052 93.4615 40.8712 94.2545 41.2033C95.0475 41.521 95.6603 41.9902 96.0929 42.611C96.5398 43.2175 96.7633 43.961 96.7633 44.8418C96.7633 46.1557 96.2298 47.1808 95.1629 47.9171C94.1103 48.639 92.5675 49 90.5345 49H82.3591ZM86.5982 45.903H90.1884C90.9238 45.903 91.4789 45.7803 91.8538 45.5348C92.2431 45.2749 92.4377 44.8851 92.4377 44.3653C92.4377 43.8455 92.2431 43.4629 91.8538 43.2175C91.4789 42.9576 90.9238 42.8276 90.1884 42.8276H86.2954V39.8606H89.5396C90.2605 39.8606 90.8012 39.7378 91.1617 39.4924C91.5222 39.2469 91.7024 38.8787 91.7024 38.3878C91.7024 37.8969 91.5222 37.536 91.1617 37.305C90.8012 37.0595 90.2605 36.9368 89.5396 36.9368H86.5982V45.903Z" fill="white"/>
<circle cx="23.0111" cy="26.0111" r="23.0111" fill="#AE2525"/>
<path d="M23.4921 42.1371C26.804 42.1371 29.4887 42.5542 29.4887 43.0686C29.4887 43.5832 26.804 44 23.4921 44C20.1802 44 17.4953 43.5832 17.4953 43.0686C17.4953 42.5542 20.1802 42.1371 23.4921 42.1371Z" fill="#373737" fill-opacity="0.6"/>
<path d="M29.4431 37.7155C29.4431 42.0293 26.778 42.7493 23.4911 42.7493C20.2057 42.7493 17.5395 42.0293 17.5395 37.7155C17.5395 33.4014 20.2057 29.9038 23.4911 29.9038C26.778 29.9038 29.4431 33.4009 29.4431 37.7155Z" fill="#232728"/>
<path d="M37.9828 22.5538C37.9828 27.9272 31.4931 30.6279 23.4913 30.6279C15.4894 30.6279 9 27.9272 9 22.5538C9 17.1806 15.4894 12.8249 23.4913 12.8249C31.4931 12.8249 37.9828 17.1806 37.9828 22.5538Z" fill="#F9C1AC"/>
<path d="M37.9828 22.5538C37.9828 27.9272 31.4931 30.6279 23.4913 30.6279C15.4894 30.6279 9 27.9272 9 22.5538" fill="#F2B09C"/>
<path d="M18.2624 20.8517C18.8055 20.8517 19.2459 21.2921 19.2459 21.8352C19.2459 22.3782 18.8055 22.8185 18.2624 22.8185C17.7192 22.8185 17.2791 22.3782 17.2791 21.8352C17.2791 21.2921 17.7192 20.8517 18.2624 20.8517Z" fill="#113E49"/>
<path d="M19.2459 21.8335C19.2459 22.3774 18.8053 22.8168 18.2624 22.8168C17.7193 22.8168 17.2791 22.3774 17.2791 21.8335" fill="black"/>
<path d="M20.2035 23.8839C20.1501 23.8839 20.0966 23.8639 20.0556 23.8232C19.5762 23.3427 18.9381 23.0787 18.2611 23.0787H18.2598C17.5843 23.0787 16.9463 23.3427 16.4693 23.8223C16.3888 23.9027 16.2574 23.9052 16.1774 23.8232C16.0953 23.744 16.0941 23.6126 16.1748 23.5313C16.7311 22.9725 17.4722 22.6646 18.2598 22.6646H18.2611C19.0508 22.6646 19.7912 22.9714 20.3511 23.53C20.4308 23.6105 20.4308 23.7445 20.3511 23.8232C20.3101 23.8639 20.2566 23.8839 20.2035 23.8839Z" fill="#FFD3C5"/>
<path d="M28.7209 20.8524C29.2637 20.8524 29.7037 21.2923 29.7037 21.8352C29.7037 22.378 29.2637 22.8181 28.7209 22.8181C28.1779 22.8181 27.7381 22.378 27.7381 21.8352C27.7381 21.2923 28.1779 20.8524 28.7209 20.8524Z" fill="#113E49"/>
<path d="M27.7378 21.8335C27.7378 22.3774 28.1774 22.8168 28.7201 22.8168C29.2631 22.8168 29.7038 22.3774 29.7038 21.8335" fill="black"/>
<path d="M26.7806 23.8839C26.8327 23.8839 26.8861 23.8639 26.9273 23.8232C27.4078 23.3427 28.0446 23.0787 28.7214 23.0787H28.7239C29.3986 23.0787 30.0365 23.3427 30.5145 23.8223C30.5953 23.9027 30.7267 23.9052 30.8066 23.8232C30.8884 23.744 30.8897 23.6126 30.8079 23.5313C30.253 22.9725 29.5107 22.6646 28.7239 22.6646H28.7214C27.932 22.6646 27.1926 22.9714 26.6316 23.53C26.5533 23.6105 26.5533 23.7445 26.6316 23.8232C26.6727 23.8639 26.7261 23.8839 26.7806 23.8839Z" fill="#FFD3C5"/>
<path d="M23.4912 23.9845C23.8363 23.9845 24.1161 24.3544 24.1161 24.8106C24.1161 25.2667 23.8363 25.6364 23.4912 25.6364C23.1463 25.6364 22.8665 25.2667 22.8665 24.8106C22.8665 24.3544 23.1463 23.9845 23.4912 23.9845Z" fill="#A54A53"/>
<path d="M22.0116 40.7901C21.974 40.1829 21.4032 38.9238 20.7947 38.9601L17.4831 39.9695C16.8773 40.0064 16.416 40.5296 16.4534 41.1354C16.4918 41.7416 17.0139 42.2021 17.6193 42.1639L21.8298 42.7049C22.437 42.6668 22.0492 41.3985 22.0116 40.7901Z" fill="#232728"/>
<path d="M24.9716 40.7901C25.0092 40.1829 25.5795 38.9238 26.1872 38.9601L29.4996 39.9695C30.1054 40.0064 30.5654 40.5296 30.529 41.1354C30.4903 41.7416 29.9673 42.2021 29.3631 42.1639L25.1516 42.7049C24.5458 42.6668 24.9335 41.3985 24.9716 40.7901Z" fill="#232728"/>
<path d="M19.5502 33.3433C20.2143 33.5045 20.6203 34.1694 20.4628 34.8347L19.5738 38.5105C19.415 39.1733 18.7484 39.5806 18.0831 39.4193C17.4233 39.2593 17.016 38.5935 17.1747 37.9316L18.0612 34.2534C18.2212 33.593 18.8858 33.1846 19.5502 33.3433Z" fill="#F2B09C"/>
<path d="M17.6843 39.926C17.1212 39.617 14.1582 37.4016 14.4647 36.8367C14.7736 36.2746 18.237 37.5821 18.7998 37.8886C19.3627 38.1978 19.5695 38.9017 19.2593 39.4655C18.9512 40.0291 18.2465 40.2339 17.6843 39.926Z" fill="#F9C1AC"/>
<path d="M27.4326 33.3433C26.7685 33.5045 26.3625 34.1694 26.5201 34.8347L27.4087 38.5105C27.5676 39.1733 28.2341 39.5806 28.8995 39.4193C29.5592 39.2593 29.9665 38.5935 29.8078 37.9316L28.9213 34.2534C28.7616 33.593 28.0967 33.1846 27.4326 33.3433Z" fill="#F2B09C"/>
<path d="M29.2978 39.926C29.8614 39.617 32.8247 37.4016 32.5166 36.8367C32.209 36.2746 28.7445 37.5821 28.1828 37.8886C27.6198 38.1978 27.4131 38.9017 27.7233 39.4655C28.0314 40.0291 28.7361 40.2339 29.2978 39.926Z" fill="#F9C1AC"/>
<path d="M23.3042 41.3391C23.7694 41.1997 25.6535 40.2206 25.5136 39.7569C25.3729 39.2905 23.261 39.5157 22.7963 39.6551C22.3321 39.7946 22.0672 40.2861 22.2067 40.7513C22.3479 41.2163 22.8392 41.4799 23.3042 41.3391Z" fill="#F9C1AC"/>
<path d="M23.6786 41.3391C23.2131 41.1997 21.3292 40.2206 21.4691 39.7569C21.6099 39.2905 23.7217 39.5157 24.1864 39.6551C24.6506 39.7946 24.9155 40.2861 24.776 40.7513C24.6348 41.2163 24.1433 41.4799 23.6786 41.3391Z" fill="#F9C1AC"/>
<path d="M25.3579 7.80236H21.6844V8.67011H22.2628V16.9427C22.2628 17.4054 22.6388 17.7815 23.1018 17.7815H23.9694C24.4322 17.7815 24.8082 17.4054 24.8082 16.9427V8.64109H25.3868V7.80236H25.3579Z" fill="#F2B09C"/>
<path d="M22.5233 10.7527V16.9136C22.5233 17.2318 22.7836 17.4633 23.0728 17.4633H23.9405C24.2588 17.4633 24.4902 17.2029 24.4902 16.9136V10.7527H22.5233Z" fill="#F16D6E"/>
<path d="M23.8248 8.55427C24.0645 8.55427 24.2587 8.74855 24.2587 8.98815C24.2587 9.22775 24.0645 9.42215 23.8248 9.42215C23.5853 9.42215 23.3909 9.22775 23.3909 8.98815C23.3909 8.74855 23.5853 8.55427 23.8248 8.55427Z" fill="white"/>
<path d="M23.5645 11.5625C23.7561 11.5625 23.9116 11.718 23.9116 11.9096C23.9116 12.1013 23.7561 12.2567 23.5645 12.2567C23.3729 12.2567 23.2174 12.1013 23.2174 11.9096C23.2174 11.718 23.3729 11.5625 23.5645 11.5625Z" fill="white"/>
<path d="M23.6224 13.9055C23.798 13.9055 23.9405 14.0479 23.9405 14.2237C23.9405 14.3995 23.798 14.5419 23.6224 14.5419C23.4467 14.5419 23.3041 14.3995 23.3041 14.2237C23.3041 14.0479 23.4467 13.9055 23.6224 13.9055Z" fill="white"/>
<path d="M23.8536 15.3806C23.9815 15.3806 24.0851 15.4842 24.0851 15.6121C24.0851 15.7399 23.9815 15.8434 23.8536 15.8434C23.726 15.8434 23.6224 15.7399 23.6224 15.6121C23.6224 15.4842 23.726 15.3806 23.8536 15.3806Z" fill="white"/>
</svg>
